# xmcd CD database file
#
# Track frame offsets:
#	150
#	16220
#	33435
#	48787
#	71937
#	90010
#	110450
#	127460
#	145970
#	164815
#	181027
#	196765
#	222315
#	236410
#	252112
#	272762
#	298557
#	314880
#
# Disc length: 4471 seconds
#
# Revision: 6
# Processed by: cddbd v1.5.2PL0 Copyright (c) Steve Scherf et al.
# Submitted via: CDex 2.14
#
DISCID=0c117512
DTITLE=Rolling Stones - The Best Of The Rolling Stones Jump Back '71 '93
DYEAR=1993
DGENRE=Rock
TTITLE0=Start Me Up
TTITLE1=Brown Sugar
TTITLE2=Harlem Shuffle
TTITLE3=It's Only Rock'n Roll
TTITLE4=Mixed Emotions
TTITLE5=Angie
TTITLE6=Tumbling Dice
TTITLE7=Fool To Cry
TTITLE8=Rock And A Hard Place
TTITLE9=Miss You
TTITLE10=Hot Stuff
TTITLE11=Emotional Rescue
TTITLE12=Respectable
TTITLE13=Beast Of Burden
TTITLE14=Waiting On A Friend
TTITLE15=Wild Horses
TTITLE16=Bitch
TTITLE17=Undercover of the night
EXTD=YEAR: 1993
EXTT0=
EXTT1=
EXTT2=
EXTT3=
EXTT4=
EXTT5=
EXTT6=
EXTT7=
EXTT8=
EXTT9=
EXTT10=
EXTT11=
EXTT12=
EXTT13=
EXTT14=
EXTT15=
EXTT16=
EXTT17=
PLAYORDER=
